<svg xmlns="http://www.w3.org/2000/svg" xmlns:xlink="http://www.w3.org/1999/xlink" width="80" height="80"  viewBox="0 0 120 120">
  <defs>
    <style>
      .cls-1 {
        clip-path: url(#clip-Adzone_120x120);
      }

      .cls-2 {
        fill: url(#linear-gradient);
      }

      .cls-3 {
        fill: url(#linear-gradient-2);
      }

      .cls-4 {
        fill: #3b801d;
      }

      .cls-5 {
        fill: #ffe200;
      }

      .cls-6 {
        fill: #fff;
      }
    </style>
    <linearGradient id="linear-gradient" x1="-1.176" y1="1.8" x2="-1.152" y2="1.8" gradientUnits="objectBoundingBox">
      <stop offset="0" stop-color="#3e7d38"/>
      <stop offset="0.341" stop-color="#346b34"/>
      <stop offset="0.868" stop-color="#346b34"/>
      <stop offset="1" stop-color="#417b37"/>
    </linearGradient>
    <linearGradient id="linear-gradient-2" x1="-1.192" y1="1.8" x2="-1.179" y2="1.8" gradientUnits="objectBoundingBox">
      <stop offset="0" stop-color="#f4d926"/>
      <stop offset="0.341" stop-color="#ecc11c"/>
      <stop offset="0.868" stop-color="#ecc11c"/>
      <stop offset="1" stop-color="#f4d926"/>
    </linearGradient>
    <clipPath id="clip-Adzone_120x120">
      <rect width="120" height="120"/>
    </clipPath>
  </defs>
  <g id="Adzone_120x120" data-name="Adzone 120x120" class="cls-1">
    <rect class="cls-6" width="120" height="120"/>
    <g id="Group_29250" data-name="Group 29250" transform="translate(-19345.404 -10336.615)">
      <g id="g20" transform="translate(19348.404 10377.615)">
        <g id="g22" transform="translate(0 0)">
          <path id="path34" class="cls-2" d="M68.712-93.109A3.309,3.309,0,0,0,65.4-89.8h0v30.981a3.309,3.309,0,0,0,3.309,3.309h37.112v-37.6Z" transform="translate(-65.404 93.109)"/>
        </g>
      </g>
      <g id="g44" transform="translate(19388.826 10377.615)">
        <g id="g46" transform="translate(0 0)">
          <path id="path58" class="cls-3" d="M121.016-93.109v37.6h70.5a3.31,3.31,0,0,0,3.31-3.309h0V-89.8a3.31,3.31,0,0,0-3.31-3.309h-70.5Z" transform="translate(-121.016 93.109)"/>
        </g>
      </g>
      <g id="g68" transform="translate(19392.703 10384.988)">
        <path id="path70" class="cls-4" d="M-.011-8.666V-11.28L8.7-28.047H-.011L-.04-31.723H13.417v2.434L4.8-12.342h8.618v3.677Z" transform="translate(0.04 31.723)"/>
      </g>
      <g id="g72" transform="translate(19407.072 10384.677)">
        <path id="path74" class="cls-4" d="M-4.721-4.453A30.465,30.465,0,0,0-4.948-8.6a6.994,6.994,0,0,0-.736-2.46A2.549,2.549,0,0,0-7.022-12.24a6,6,0,0,0-2.038-.3,5.987,5.987,0,0,0-2.036.3,2.611,2.611,0,0,0-1.354,1.176A6.738,6.738,0,0,0-13.2-8.6a30.489,30.489,0,0,0-.227,4.151A30.3,30.3,0,0,0-13.2-.311a6.641,6.641,0,0,0,.75,2.443A2.583,2.583,0,0,0-11.1,3.293a6.154,6.154,0,0,0,2.036.293,6.162,6.162,0,0,0,2.038-.293A2.522,2.522,0,0,0-5.684,2.132,6.892,6.892,0,0,0-4.948-.311a30.275,30.275,0,0,0,.228-4.142m3.911,0A31.117,31.117,0,0,1-1.2.825,9.874,9.874,0,0,1-2.53,4.5,5.691,5.691,0,0,1-5.052,6.658a9.811,9.811,0,0,1-3.978.7,9.864,9.864,0,0,1-3.986-.7A5.733,5.733,0,0,1-15.553,4.5,9.774,9.774,0,0,1-16.892.825a31.008,31.008,0,0,1-.39-5.278,31.2,31.2,0,0,1,.39-5.279,9.8,9.8,0,0,1,1.338-3.693,5.8,5.8,0,0,1,2.537-2.165A9.774,9.774,0,0,1-9.03-16.3a9.722,9.722,0,0,1,3.978.711A5.741,5.741,0,0,1-2.53-13.416,9.961,9.961,0,0,1-1.2-9.723a31.148,31.148,0,0,1,.389,5.27" transform="translate(17.281 16.301)"/>
      </g>
      <g id="g76" transform="translate(19425.814 10384.988)">
        <path id="path78" class="cls-4" d="M-4.2-5.712q.22.555.449,1.3c.151.5.295.967.426,1.414s.242.833.33,1.16.138.512.147.555c0-.021-.007-.116-.022-.286S-2.9-1.948-2.914-2.2s-.032-.531-.052-.841-.039-.618-.058-.924-.034-.6-.044-.882-.016-.518-.016-.7v-15.36H.476V2.148h-5.06L-10.79-13.376c-.137-.327-.277-.718-.419-1.176s-.275-.9-.4-1.315-.225-.782-.308-1.086-.131-.48-.14-.523c0,.033.012.216.037.548s.05.717.081,1.152.055.88.08,1.332.037.82.037,1.1V2.148h-3.56V-20.909h5.06Z" transform="translate(15.379 20.909)"/>
      </g>
      <g id="g80" transform="translate(19444.666 10384.988)">
        <path id="path82" class="cls-4" d="M0-8.666V-31.723H12.06v3.676H3.735v5.7H9.428v3.677H3.735v6.323H12.06v3.677Z" transform="translate(0 31.723)"/>
      </g>
      <g id="g84" transform="translate(19353.623 10384.988)">
        <path id="path86" class="cls-5" d="M-3.261-2.452a8.784,8.784,0,0,1-.17-.916c-.053-.383-.1-.764-.146-1.146s-.084-.722-.118-1.022-.051-.483-.051-.549c-.01.066-.035.249-.074.549S-3.9-4.9-3.952-4.515s-.106.764-.17,1.146-.12.687-.169.916L-6.129,5.926h4.706ZM.534,14.08-.525,9.6H-7L-8.056,14.08h-3.882L-6.071-8.977h4.589L4.387,14.08Z" transform="translate(11.939 8.977)"/>
      </g>
      <g id="g88" transform="translate(19370.848 10384.988)">
        <path id="path90" class="cls-5" d="M-4-4.312a30.711,30.711,0,0,0-.258-4.445,4.7,4.7,0,0,0-.919-2.435,2.047,2.047,0,0,0-.559-.441,2.663,2.663,0,0,0-.72-.245,6.65,6.65,0,0,0-.957-.106c-.362-.017-.779-.024-1.25-.024h-2.206V3.5h2.206a14.291,14.291,0,0,0,2.184-.132,2.043,2.043,0,0,0,1.242-.6A4.871,4.871,0,0,0-4.261.222,31.51,31.51,0,0,0-4-4.312m3.927.065q0,1.6-.11,3.063A19.828,19.828,0,0,1-.562,1.53a11.6,11.6,0,0,1-.721,2.255A6.081,6.081,0,0,1-2.393,5.493a6.51,6.51,0,0,1-1.191,1A4.415,4.415,0,0,1-4.8,7.02a7.08,7.08,0,0,1-1.427.213q-.779.041-1.794.041h-6.6V-15.784h6.6q1.015,0,1.794.041A7.012,7.012,0,0,1-4.8-15.53a4.6,4.6,0,0,1,1.22.522,6.252,6.252,0,0,1,1.191.988A6.047,6.047,0,0,1-1.283-12.3a11.75,11.75,0,0,1,.721,2.272A20.062,20.062,0,0,1-.18-7.311q.11,1.464.11,3.064" transform="translate(14.629 15.784)"/>
      </g>
    </g>
  </g>
</svg>
