<svg xmlns="http://www.w3.org/2000/svg" width="24" height="24" viewBox="0 0 24 24">
  <g id="Group_1603" data-name="Group 1603" transform="translate(0.162 -0.099)">
    <rect id="Rectangle_81" data-name="Rectangle 81" width="24" height="24" transform="translate(-0.162 0.099)" fill="none"/>
    <path id="Path_100" data-name="Path 100" d="M114.1,4.4a5.558,5.558,0,0,0-7.233-.541,5.558,5.558,0,0,0-7.233,8.4l6.6,6.6a.887.887,0,0,0,1.259,0l6.6-6.6a5.559,5.559,0,0,0,0-7.863Zm-1.25,6.613-5.983,5.975-5.983-5.975A3.777,3.777,0,1,1,106.2,5.65a.887.887,0,0,0,1.259,0,3.785,3.785,0,0,1,5.319,5.363Z" transform="translate(-95.15 1.339)" fill="#333"/>
  </g>
</svg>
