<svg xmlns="http://www.w3.org/2000/svg" width="42.483" height="42.482" viewBox="0 0 42.483 42.482">
  <g id="Group_29341" data-name="Group 29341" transform="translate(-9534.26 -19295.75)">
    <path id="Path_29709" data-name="Path 29709" d="M272.316,144.25a6.577,6.577,0,1,0,6.577,6.577A6.58,6.58,0,0,0,272.316,144.25Zm0,1.473a5.1,5.1,0,1,1-5.1,5.1A5.106,5.106,0,0,1,272.316,145.723Z" transform="translate(9282.666 19161.682)" fill="#215a18" stroke="#215a18" stroke-width="0.5" fill-rule="evenodd"/>
    <path id="Path_29710" data-name="Path 29710" d="M167,367.862a.736.736,0,0,0,.143.816,20.459,20.459,0,0,0,29.373,0,.735.735,0,0,0,.142-.816,11.5,11.5,0,0,0-10.48-6.764h-8.7A11.5,11.5,0,0,0,167,367.862Zm1.562.153a10.024,10.024,0,0,1,8.919-5.444h8.7a10.029,10.029,0,0,1,8.919,5.444,18.985,18.985,0,0,1-26.536,0Z" transform="translate(9373.152 18963.088)" fill="#215a18" stroke="#215a18" stroke-width="0.5" fill-rule="evenodd"/>
    <path id="Path_29711" data-name="Path 29711" d="M440.051,26.277a7,7,0,1,0,7,7A7,7,0,0,0,440.051,26.277Zm0,1.473a5.528,5.528,0,1,1-5.527,5.528A5.53,5.53,0,0,1,440.051,27.75Z" transform="translate(9129.44 19269.723)" fill="#215a18" stroke="#215a18" stroke-width="0.5" fill-rule="evenodd"/>
    <path id="Path_29712" data-name="Path 29712" d="M139.356,49.714a.736.736,0,0,0-1.013-.306,5.528,5.528,0,0,1-7.515-7.515.736.736,0,0,0-.306-1.013,20.469,20.469,0,1,0,8.834,8.834Zm-.992,1.319a18.992,18.992,0,1,1-9.161-9.161,7,7,0,0,0,9.161,9.161Z" transform="translate(9433.829 19258.426)" fill="#215a18" stroke="#215a18" stroke-width="0.5" fill-rule="evenodd"/>
  </g>
</svg>
