<svg xmlns="http://www.w3.org/2000/svg" width="47" height="44.795" viewBox="0 0 47 44.795">
  <g id="Group_29380" data-name="Group 29380" transform="translate(-1235 -296.205)">
    <path id="storefront_FILL0_wght300_GRAD0_opsz48" d="M43.185,22.6V40.057a3.034,3.034,0,0,1-3.032,3.032H9.575a3.034,3.034,0,0,1-3.032-3.032V22.6A5.649,5.649,0,0,1,4.61,19.672a6.305,6.305,0,0,1,.052-3.5L6.805,9.323A3.943,3.943,0,0,1,8.216,7.232,3.856,3.856,0,0,1,10.568,6.5H39a4.057,4.057,0,0,1,2.431.732A3.882,3.882,0,0,1,42.871,9.27l2.248,6.9a6.235,6.235,0,0,1,.026,3.528A5.529,5.529,0,0,1,43.185,22.6ZM29.542,21.5a3.92,3.92,0,0,0,2.9-1.072A2.85,2.85,0,0,0,33.358,18L31.947,8.852H26.093V17.79a3.792,3.792,0,0,0,.993,2.587A3.149,3.149,0,0,0,29.542,21.5Zm-9.67,0a3.691,3.691,0,0,0,2.718-1.1,3.569,3.569,0,0,0,1.1-2.613V8.852H17.834L16.423,18.1a2.813,2.813,0,0,0,.836,2.3,3.356,3.356,0,0,0,2.613,1.1Zm-9.461,0a3.369,3.369,0,0,0,2.4-.941,3.652,3.652,0,0,0,1.15-2.3l1.411-9.409H10.1a.966.966,0,0,0-.549.157.668.668,0,0,0-.287.47L7.014,16.745a3.528,3.528,0,0,0,.444,3.241A3.339,3.339,0,0,0,10.412,21.5Zm28.905,0a3.518,3.518,0,0,0,2.9-1.437,3.453,3.453,0,0,0,.549-3.319l-2.3-7.318a.608.608,0,0,0-.261-.444,1.081,1.081,0,0,0-.575-.131H34.4l1.359,9.409a3.9,3.9,0,0,0,1.2,2.3A3.305,3.305,0,0,0,39.317,21.5ZM9.575,40.737H40.153a.7.7,0,0,0,.47-.183.626.626,0,0,0,.209-.5V23.749a1.33,1.33,0,0,1-.6.131q-.444.026-.915.026a5.531,5.531,0,0,1-2.509-.575,7.257,7.257,0,0,1-2.2-1.777,6.546,6.546,0,0,1-2.065,1.7,6.093,6.093,0,0,1-2.9.653,5.9,5.9,0,0,1-2.561-.523,8.074,8.074,0,0,1-2.2-1.62,5.86,5.86,0,0,1-2.143,1.594,6.453,6.453,0,0,1-2.613.549,6.838,6.838,0,0,1-2.77-.549,5.15,5.15,0,0,1-2.143-1.8,9.533,9.533,0,0,1-2.64,1.829,5.657,5.657,0,0,1-2.169.523q-.418,0-.836-.026a2.236,2.236,0,0,1-.68-.131V40.057a.626.626,0,0,0,.209.5.7.7,0,0,0,.47.183Zm30.578,0h0Z" transform="translate(1230.613 289.705)" fill="#215a18"/>
    <g id="Ellipse_171" data-name="Ellipse 171" transform="translate(1266 325)" fill="#215a18" stroke="#fff" stroke-width="4">
      <circle cx="6" cy="6" r="6" stroke="none"/>
      <circle cx="6" cy="6" r="8" fill="none"/>
    </g>
  </g>
</svg>
