<svg xmlns="http://www.w3.org/2000/svg" width="45" height="45" viewBox="0 0 45 45">
  <g id="Group_29379" data-name="Group 29379" transform="translate(-827 -294)">
    <path id="account_circle_FILL0_wght300_GRAD0_opsz48" d="M12.121,37.746a31.781,31.781,0,0,1,6.447-3.453A19.062,19.062,0,0,1,25.5,33.053a19.277,19.277,0,0,1,6.959,1.241,31.49,31.49,0,0,1,6.474,3.453,20.182,20.182,0,0,0,3.48-5.772,17.906,17.906,0,0,0,1.16-6.474A17.782,17.782,0,0,0,25.5,7.428,17.782,17.782,0,0,0,7.428,25.5a17.906,17.906,0,0,0,1.16,6.474A19.6,19.6,0,0,0,12.121,37.746ZM25.5,26.741a6.817,6.817,0,0,1-6.905-6.905A6.817,6.817,0,0,1,25.5,12.93a6.817,6.817,0,0,1,6.905,6.905A6.817,6.817,0,0,1,25.5,26.741ZM25.5,46a19.805,19.805,0,0,1-7.984-1.618,20.7,20.7,0,0,1-10.9-10.9A19.805,19.805,0,0,1,5,25.5a19.805,19.805,0,0,1,1.618-7.984,20.7,20.7,0,0,1,10.9-10.9A19.805,19.805,0,0,1,25.5,5a19.805,19.805,0,0,1,7.984,1.618,20.7,20.7,0,0,1,10.9,10.9A19.805,19.805,0,0,1,46,25.5a19.805,19.805,0,0,1-1.618,7.984,20.7,20.7,0,0,1-10.9,10.9A19.805,19.805,0,0,1,25.5,46Zm0-2.428a18.65,18.65,0,0,0,5.934-.971,17.459,17.459,0,0,0,5.5-3.075,20.578,20.578,0,0,0-5.476-2.967A17.683,17.683,0,0,0,25.5,35.534a17.915,17.915,0,0,0-5.988,1.025,19.64,19.64,0,0,0-5.449,2.967,17.459,17.459,0,0,0,5.5,3.075A18.65,18.65,0,0,0,25.5,43.572Zm0-19.313a4.249,4.249,0,0,0,4.424-4.424A4.249,4.249,0,0,0,25.5,15.412a4.249,4.249,0,0,0-4.424,4.424A4.249,4.249,0,0,0,25.5,24.259ZM25.5,19.836ZM25.5,39.526Z" transform="translate(822 289)" fill="#215a18"/>
    <g id="Ellipse_173" data-name="Ellipse 173" transform="translate(856 323)" fill="#215a18" stroke="#fff" stroke-width="4">
      <circle cx="6" cy="6" r="6" stroke="none"/>
      <circle cx="6" cy="6" r="8" fill="none"/>
    </g>
  </g>
</svg>
