<svg xmlns="http://www.w3.org/2000/svg" width="36.5" height="37.8" viewBox="0 0 36.5 37.8">
  <path id="category_FILL0_wght300_GRAD0_opsz48" d="M14.4,21,24.05,5.45,33.65,21ZM35.2,43.25a7.7,7.7,0,0,1-5.7-2.325A7.824,7.824,0,0,1,27.2,35.2a7.857,7.857,0,0,1,8-8,7.824,7.824,0,0,1,5.725,2.3,7.7,7.7,0,0,1,2.325,5.7,7.941,7.941,0,0,1-8.05,8.05ZM6.75,42.05V28.15h13.9v13.9Zm28.5-1.1a5.488,5.488,0,0,0,4.025-1.675A5.547,5.547,0,0,0,40.95,35.2a5.464,5.464,0,0,0-1.675-4.05A5.59,5.59,0,0,0,35.2,29.5a5.506,5.506,0,0,0-4.05,1.65,5.738,5.738,0,0,0,4.1,9.8Zm-26.2-1.2h9.3v-9.3H9.05Zm9.4-21H29.6L24.05,9.8ZM24.05,18.75ZM18.35,30.45ZM35.2,35.2Z" transform="translate(-6.75 -5.45)" fill="#215a18"/>
</svg>
