<svg xmlns="http://www.w3.org/2000/svg" width="25.296" height="27.986" viewBox="0 0 25.296 27.986">
  <path id="upload-file" d="M16.493,26.288H7.048A1.349,1.349,0,0,1,5.7,24.938V6.048A1.349,1.349,0,0,1,7.048,4.7h6.747V8.747a4.048,4.048,0,0,0,4.048,4.048H21.89v2.7a1.349,1.349,0,1,0,2.7,0V11.364A1.768,1.768,0,0,0,24.508,11v-.121a1.444,1.444,0,0,0-.256-.378h0l-8.1-8.1h0a1.444,1.444,0,0,0-.378-.256.432.432,0,0,0-.121,0A1.187,1.187,0,0,0,15.211,2H7.048A4.048,4.048,0,0,0,3,6.048v18.89a4.048,4.048,0,0,0,4.048,4.048h9.445a1.349,1.349,0,1,0,0-2.7Zm0-19.687L19.988,10.1H17.842a1.349,1.349,0,0,1-1.349-1.349ZM9.747,10.1a1.349,1.349,0,1,0,0,2.7H11.1a1.349,1.349,0,0,0,0-2.7Zm8.1,5.4h-8.1a1.349,1.349,0,0,0,0,2.7h8.1a1.349,1.349,0,0,0,0-2.7ZM26.9,22.631l-2.7-2.7a1.395,1.395,0,0,0-1.916,0l-2.7,2.7A1.355,1.355,0,0,0,21.5,24.547l.391-.4v3.495a1.349,1.349,0,0,0,2.7,0V24.142l.391.4A1.355,1.355,0,1,0,26.9,22.631Zm-11.753.958a1.349,1.349,0,1,0,0-2.7h-5.4a1.349,1.349,0,1,0,0,2.7Z" transform="translate(-2.5 -1.5)" fill="#215a18" stroke="#fff" stroke-width="1"/>
</svg>
