<svg xmlns="http://www.w3.org/2000/svg" width="26.081" height="23.166" viewBox="0 0 26.081 23.166">
  <g id="category" transform="translate(-34.74 -87.989)">
    <path id="Path_31129" data-name="Path 31129" d="M58.6,109.515H36.98a1.4,1.4,0,0,1-.213-.014l.219.03a1.528,1.528,0,0,1-.352-.1l.2.082a1.434,1.434,0,0,1-.221-.117c-.153-.1.079.074.036.033s-.063-.055-.093-.085-.049-.052-.074-.079c-.09-.1.131.189.022.022a1.433,1.433,0,0,1-.118-.221l.082.2a1.466,1.466,0,0,1-.1-.352c.011.074.019.145.03.219a5.2,5.2,0,0,1-.014-.653V90.232a1.814,1.814,0,0,1,.014-.21c-.011.074-.019.145-.03.219a1.526,1.526,0,0,1,.1-.352l-.082.2a1.433,1.433,0,0,1,.118-.221c.1-.153-.074.079-.033.036s.055-.063.085-.093.052-.049.079-.074c.1-.09-.189.131-.022.022a1.433,1.433,0,0,1,.221-.117l-.2.082a1.467,1.467,0,0,1,.352-.1l-.219.03a6.83,6.83,0,0,1,.82-.014H43a8.387,8.387,0,0,1,.981.011l-.219-.03a1.43,1.43,0,0,1,.281.077l-.2-.082a1.931,1.931,0,0,1,.183.1c.137.074-.145-.137-.033-.027.025.025.052.046.077.071s.038.041.057.063c.038.044.077.087.115.134.169.2.342.393.511.587.478.552.959,1.1,1.437,1.656.186.213.369.426.555.639a.969.969,0,0,0,.773.465c.2.005.4,0,.6,0h8.028c.806,0,1.612,0,2.415,0a1.861,1.861,0,0,1,.213.014l-.219-.03a1.526,1.526,0,0,1,.352.1l-.2-.082a1.434,1.434,0,0,1,.221.117c.153.1-.079-.074-.036-.033s.063.055.093.085.049.052.074.079c.09.1-.131-.189-.022-.022a1.433,1.433,0,0,1,.118.221l-.082-.2a1.466,1.466,0,0,1,.1.352c-.011-.074-.019-.145-.03-.219a4.732,4.732,0,0,1,.014.557v12.9c0,.6.005,1.2,0,1.8a1.722,1.722,0,0,1-.014.2c.011-.074.019-.145.03-.219a1.526,1.526,0,0,1-.1.352l.082-.2a1.716,1.716,0,0,1-.118.221c-.1.153.074-.079.033-.036s-.055.063-.085.093-.052.049-.079.074c-.1.09.189-.131.022-.022a1.435,1.435,0,0,1-.221.117l.2-.082a1.467,1.467,0,0,1-.352.1l.219-.03c-.055.005-.117.008-.183.008a.82.82,0,0,0,0,1.639,2.233,2.233,0,0,0,2.216-2.224c0-.153,0-.3,0-.456V94.839a3.733,3.733,0,0,0-.35-2.17,2.285,2.285,0,0,0-1.751-1.016c-.074-.005-.148-.005-.221-.005H47.53c.194.079.385.161.579.24L46.215,89.7c-.3-.339-.587-.678-.883-1.019a2.087,2.087,0,0,0-1.62-.7H37.384a3.091,3.091,0,0,0-1.183.139,2.277,2.277,0,0,0-1.347,1.4,2.207,2.207,0,0,0-.107.7c0,.44,0,.883,0,1.322v16.558a4.323,4.323,0,0,0,.139,1.582,2.3,2.3,0,0,0,1.383,1.342,2.137,2.137,0,0,0,.719.112H58.6a.817.817,0,1,0,0-1.634Z" transform="translate(0)" fill="#215917"/>
    <path id="Path_31130" data-name="Path 31130" d="M58.785,239.766H37.167a1.4,1.4,0,0,1-.213-.014l.219.03a1.527,1.527,0,0,1-.352-.1l.2.082a1.433,1.433,0,0,1-.221-.117c-.153-.1.079.074.036.033s-.063-.055-.093-.085-.049-.052-.074-.079c-.09-.1.131.189.022.022a1.433,1.433,0,0,1-.117-.221l.082.2a1.466,1.466,0,0,1-.1-.352c.011.074.019.145.03.219a4.731,4.731,0,0,1-.014-.557v-12.9c0-.6-.005-1.2,0-1.8a1.72,1.72,0,0,1,.014-.2c-.011.074-.019.145-.03.219a1.527,1.527,0,0,1,.1-.352l-.082.2a1.433,1.433,0,0,1,.117-.221c.1-.153-.074.079-.033.036s.055-.063.085-.093.052-.049.079-.074c.1-.09-.189.131-.022.022a1.433,1.433,0,0,1,.221-.118l-.2.082a1.466,1.466,0,0,1,.352-.1l-.219.03a5.917,5.917,0,0,1,.73-.014H58.758a1.4,1.4,0,0,1,.213.014l-.219-.03a1.525,1.525,0,0,1,.352.1l-.2-.082a1.433,1.433,0,0,1,.221.118c.153.1-.079-.074-.036-.033s.063.055.093.085.049.052.074.079c.09.1-.131-.189-.022-.022a1.433,1.433,0,0,1,.118.221l-.082-.2a1.466,1.466,0,0,1,.1.352c-.011-.074-.019-.145-.03-.219a4.732,4.732,0,0,1,.014.557v12.9c0,.6.005,1.2,0,1.8a1.721,1.721,0,0,1-.014.2c.011-.074.019-.145.03-.219a1.525,1.525,0,0,1-.1.352l.082-.2a1.716,1.716,0,0,1-.118.221c-.1.153.074-.079.033-.036s-.055.063-.085.093-.052.049-.079.074c-.1.09.189-.131.022-.022a1.433,1.433,0,0,1-.221.117l.2-.082a1.466,1.466,0,0,1-.352.1l.219-.03a1.008,1.008,0,0,1-.186.014.82.82,0,1,0,0,1.639,2.257,2.257,0,0,0,2.109-1.538,2.384,2.384,0,0,0,.107-.773V224.115a2.238,2.238,0,0,0-.331-1.164,2.317,2.317,0,0,0-1.123-.913,2.853,2.853,0,0,0-1.1-.139H37.259c-.063,0-.128,0-.191,0a2.257,2.257,0,0,0-2.049,1.612,4.045,4.045,0,0,0-.085,1.134V238.52c0,.224,0,.448,0,.672a2.194,2.194,0,0,0,.372,1.224,2.341,2.341,0,0,0,1.134.872,2.194,2.194,0,0,0,.776.117H58.791a.829.829,0,0,0,.82-.82A.841.841,0,0,0,58.785,239.766Z" transform="translate(-0.187 -130.251)" fill="#215917"/>
  </g>
</svg>
