<svg xmlns="http://www.w3.org/2000/svg" width="25.777" height="28.529" viewBox="0 0 25.777 28.529">
  <path id="download-file" d="M9.88,10.256a1.376,1.376,0,0,0,0,2.752h1.376a1.376,1.376,0,0,0,0-2.752Zm6.88,16.513H7.128a1.376,1.376,0,0,1-1.376-1.376V6.128A1.376,1.376,0,0,1,7.128,4.752h6.88V8.88a4.128,4.128,0,0,0,4.128,4.128h4.128v2.752a1.376,1.376,0,0,0,2.752,0V11.55a1.8,1.8,0,0,0-.083-.372v-.124a1.472,1.472,0,0,0-.261-.385h0L16.417,2.413h0a1.472,1.472,0,0,0-.385-.261.4.4,0,0,0-.138,0A1.514,1.514,0,0,0,15.467,2H7.128A4.128,4.128,0,0,0,3,6.128V25.393a4.128,4.128,0,0,0,4.128,4.128h9.633a1.376,1.376,0,0,0,0-2.752Zm0-20.077,3.564,3.564H18.137A1.376,1.376,0,0,1,16.761,8.88Zm1.376,9.068H9.88a1.376,1.376,0,0,0,0,2.752h8.256a1.376,1.376,0,0,0,0-2.752Zm9.233,8.656a1.376,1.376,0,0,0-1.954,0l-.4.413V21.265a1.376,1.376,0,1,0-2.752,0v3.564l-.4-.413a1.382,1.382,0,1,0-1.954,1.954l2.752,2.752a1.376,1.376,0,0,0,.454.289,1.294,1.294,0,0,0,1.046,0,1.376,1.376,0,0,0,.454-.289L27.37,26.37a1.376,1.376,0,0,0,0-1.954Zm-11.986-.4a1.376,1.376,0,0,0,0-2.752H9.88a1.376,1.376,0,0,0,0,2.752Z" transform="translate(-2.5 -1.5)" fill="#215a18" stroke="#fff" stroke-width="1"/>
</svg>
