<svg xmlns="http://www.w3.org/2000/svg" xmlns:xlink="http://www.w3.org/1999/xlink" width="30" height="30" viewBox="0 0 30 30">
  <defs>
    <clipPath id="clip-Artboard_2">
      <rect width="30" height="30"/>
    </clipPath>
  </defs>
  <g id="Artboard_2" data-name="Artboard – 2" clip-path="url(#clip-Artboard_2)">
    <rect width="30" height="30" fill="#fff"/>
    <g id="Group_29575" data-name="Group 29575" transform="translate(-18727 -22478.393)">
      <g id="Rectangle_8148" data-name="Rectangle 8148" transform="translate(18731 22487)" fill="none" stroke="#215a18" stroke-width="1.4">
        <rect width="22" height="19" rx="2" stroke="none"/>
        <rect x="0.7" y="0.7" width="20.6" height="17.6" rx="1.3" fill="none"/>
      </g>
      <path id="Path_31137" data-name="Path 31137" d="M18752.174,22488.428l-3.48-7.561-12.961.072-3.793,7.33" fill="none" stroke="#215a18" stroke-width="1.4"/>
      <path id="Path_31138" data-name="Path 31138" d="M18742.02,22480.785v6.713" fill="none" stroke="#215a18" stroke-width="1.4"/>
      <g id="noun_tick_2349168" transform="translate(18694.037 22465.711)">
        <path id="Path_2826" data-name="Path 2826" d="M28.467,28.309a.351.351,0,0,0-.508,0l-4.2,4.2-1.743-1.743a.359.359,0,1,0-.508.508l2,2a.351.351,0,0,0,.508,0l4.453-4.453A.373.373,0,0,0,28.467,28.309Z" transform="translate(23)" fill="#215a18" stroke="#215a18" stroke-width="0.5"/>
      </g>
    </g>
  </g>
</svg>
