<svg xmlns="http://www.w3.org/2000/svg" width="27.368" height="27.411" viewBox="0 0 27.368 27.411">
  <path id="login" d="M26.58,19.407a1.329,1.329,0,0,0-1.78.6,10.63,10.63,0,1,1,0-9.434,1.337,1.337,0,0,0,2.392-1.2,13.287,13.287,0,1,0,0,11.826,1.329,1.329,0,0,0-.611-1.794Zm.664-5.448H14.5l3.056-3.043a1.334,1.334,0,1,0-1.887-1.887l-5.315,5.315a1.374,1.374,0,0,0,0,1.887l5.315,5.315a1.334,1.334,0,1,0,1.887-1.887L14.5,16.616H27.244a1.329,1.329,0,1,0,0-2.657Z" transform="translate(28.973 28.993) rotate(180)" fill="#215a18" stroke="#fff" stroke-width="0.8"/>
</svg>
