<svg xmlns="http://www.w3.org/2000/svg" width="28.579" height="18.789" viewBox="0 0 28.579 18.789">
  <g id="Group_29554" data-name="Group 29554" transform="translate(-18598.428 -22892)">
    <path id="Path_31135" data-name="Path 31135" d="M14.29,19.29a1,1,0,1,0,1.42,1.42l4-4a1,1,0,0,0,0-1.42l-4-4a1,1,0,1,0-1.42,1.42L16.59,15H10a1,1,0,1,0,0,2h6.59Z" transform="translate(18607 22888.391)" fill="#215a18"/>
    <g id="Group_29553" data-name="Group 29553" transform="translate(103.824 -308.766)">
      <circle id="Ellipse_182" data-name="Ellipse 182" cx="6" cy="6" r="6" transform="translate(18498 23201.766)" fill="none" stroke="#215a18" stroke-width="2"/>
      <path id="Path_31134" data-name="Path 31134" d="M16,72.275a10.139,10.139,0,0,1,16.588,0" transform="translate(18480 23145.887)" fill="none" stroke="#215a18" stroke-linecap="round" stroke-linejoin="round" stroke-width="2"/>
    </g>
  </g>
</svg>
