<svg xmlns="http://www.w3.org/2000/svg" width="26.058" height="26.058" viewBox="0 0 26.058 26.058">
  <path id="laout" d="M2.25,24.375a3.636,3.636,0,0,0,3.633,3.633H24.375a3.636,3.636,0,0,0,3.633-3.633V5.883A3.636,3.636,0,0,0,24.375,2.25H5.883A3.636,3.636,0,0,0,2.25,5.883Zm23.776,0a1.652,1.652,0,0,1-1.651,1.651H16.12V12.157h9.907ZM4.231,5.883A1.652,1.652,0,0,1,5.883,4.231H24.375a1.652,1.652,0,0,1,1.651,1.651v4.293H4.231Zm0,6.274h9.907v13.87H5.883a1.652,1.652,0,0,1-1.651-1.651Z" transform="translate(-2.1 -2.1)" fill="#215a18" stroke="#fff" stroke-width="0.3"/>
</svg>
