<svg xmlns="http://www.w3.org/2000/svg" width="44.335" height="37.305" viewBox="0 0 44.335 37.305">
  <g id="Group_29345" data-name="Group 29345" transform="translate(-1638.649 -660.65)">
    <g id="noun-log-in-2863103" transform="translate(1663.343 667)">
      <path id="Path_29700" data-name="Path 29700" d="M368.632,112.405a1.132,1.132,0,1,1,0-2.264h5.66a1.132,1.132,0,0,0,1.132-1.132V90.9a1.132,1.132,0,0,0-1.132-1.132h-5.66a1.132,1.132,0,1,1,0-2.264h5.66a3.4,3.4,0,0,1,3.4,3.4v18.113a3.4,3.4,0,0,1-3.4,3.4Z" transform="translate(-358.047 -87.501)" fill="#215a18" fill-rule="evenodd"/>
      <path id="Path_29701" data-name="Path 29701" d="M319.06,198.161l-3.728-3.728a1.132,1.132,0,1,1,1.6-1.6l4.528,4.528a1.132,1.132,0,0,1,0,1.6l-4.528,4.528a1.132,1.132,0,1,1-1.6-1.6Z" transform="translate(-305.944 -185.709)" fill="#215a18" fill-rule="evenodd"/>
      <path id="Path_29702" data-name="Path 29702" d="M187.144,262.5a1.153,1.153,0,0,1,0,2.264h-11.21a1.153,1.153,0,0,1,0-2.264Z" transform="translate(-172.229 -251.18)" fill="#215a18" fill-rule="evenodd"/>
    </g>
    <g id="Group_29308" data-name="Group 29308" transform="translate(1638.999 661)">
      <path id="Path_29703" data-name="Path 29703" d="M263.21,89.62a8.409,8.409,0,1,1,8.409-8.409A8.418,8.418,0,0,1,263.21,89.62Zm0-13.85a5.441,5.441,0,1,0,5.441,5.441A5.448,5.448,0,0,0,263.21,75.77Z" transform="translate(-246.886 -72.802)" fill="#215a18" stroke="#fff" stroke-width="0.7"/>
      <path id="Path_29704" data-name="Path 29704" d="M196.362,303.414h-29.68a1.484,1.484,0,0,1-1.484-1.479,16.275,16.275,0,0,1,16.274-16.328h.052a16.343,16.343,0,0,1,16.321,16.324,1.484,1.484,0,0,1-1.484,1.484Zm-28.116-2.968H194.8a13.375,13.375,0,0,0-13.274-11.872c-.018,0-.033,0-.05,0a13.3,13.3,0,0,0-13.227,11.872Z" transform="translate(-165.198 -266.809)" fill="#215a18" stroke="#fff" stroke-width="0.7"/>
    </g>
  </g>
</svg>
