<svg xmlns="http://www.w3.org/2000/svg" width="41" height="37.763" viewBox="0 0 41 37.763">
  <path id="work_FILL0_wght300_GRAD0_opsz48" d="M8.129,43.763A3.131,3.131,0,0,1,5,40.634V16.682a3.131,3.131,0,0,1,3.129-3.129h9.818V9.129A3.131,3.131,0,0,1,21.076,6h8.847a3.131,3.131,0,0,1,3.129,3.129v4.424h9.818A3.131,3.131,0,0,1,46,16.682V40.634a3.131,3.131,0,0,1-3.129,3.129Zm0-2.428H42.871a.74.74,0,0,0,.7-.7V16.682a.74.74,0,0,0-.7-.7H8.129a.74.74,0,0,0-.7.7V40.634a.74.74,0,0,0,.7.7ZM20.375,13.553h10.25V9.129a.74.74,0,0,0-.7-.7H21.076a.74.74,0,0,0-.7.7ZM7.428,41.336v0Z" transform="translate(-5 -6)" fill="#215a18"/>
</svg>
