<svg xmlns="http://www.w3.org/2000/svg" width="43.987" height="43.788" viewBox="0 0 43.987 43.788">
  <path id="Path_29695" data-name="Path 29695" d="M160.785,105.822a1.133,1.133,0,0,1-1.134,1.134H135.476a1.134,1.134,0,0,1-1.134-1.134V66.436a1.134,1.134,0,0,1,1.134-1.134H168.2a1.135,1.135,0,0,1,1.134,1.134V88.489a1.135,1.135,0,1,1-2.269,0V67.57H136.611v37.118h23.04a1.134,1.134,0,0,1,1.134,1.134ZM141.4,75.834h20.566a1.135,1.135,0,1,0,0-2.269H141.4a1.135,1.135,0,0,0,0,2.269Zm20.879,5.349H141.7a1.134,1.134,0,0,0,0,2.269h20.573a1.134,1.134,0,1,0,0-2.269Zm1.134,8.752a1.135,1.135,0,0,0-1.134-1.134H141.7a1.134,1.134,0,1,0,0,2.269h20.573a1.134,1.134,0,0,0,1.134-1.134ZM141.7,96.423a1.135,1.135,0,0,0,0,2.269h16.035a1.135,1.135,0,0,0,0-2.269Zm36.3,3.857h0a3.526,3.526,0,1,1,.023,0Zm-2.269,0h0a2.586,2.586,0,1,0,.023,0Zm-2.1-3.2C173.426,96.863,173.879,97.289,173.638,97.075Z" transform="translate(-134.192 -65.151)" fill="#215a18" stroke="#fff" stroke-width="0.3"/>
</svg>
