<svg xmlns="http://www.w3.org/2000/svg" width="42.368" height="46.901" viewBox="0 0 42.368 46.901">
  <g id="Group_29307" data-name="Group 29307" transform="translate(-10252.235 -19287.502)">
    <path id="Path_29643" data-name="Path 29643" d="M177.731,90.882a.317.317,0,0,0-.152-.27l-6.012-3.675,6.014-3.732a.318.318,0,0,0,0-.541L157.233,70.238a.318.318,0,0,0-.33,0l-20.385,12.34a.318.318,0,0,0,0,.541l6.016,3.766-6.012,3.64a.318.318,0,0,0,0,.541l6.013,3.764-6.01,3.642a.318.318,0,0,0,0,.541l19.407,12.146H141.687a.318.318,0,1,0,0,.635h30.084a.318.318,0,0,0,0-.635h-13.63L177.581,99.1a.318.318,0,0,0,0-.541l-6.013-3.675,6.015-3.732a.317.317,0,0,0,.15-.27Zm-40.442-8.029,19.778-11.972,19.74,12.055L157.028,95.212Zm39.518,15.979L157.028,111.1l-19.74-12.355,5.842-3.541,13.728,8.593a.315.315,0,0,0,.168.048h0a.337.337,0,0,0,.058-.008c.009,0,.019,0,.028,0a.262.262,0,0,0,.025-.011.319.319,0,0,0,.056-.024l13.769-8.54Zm-19.779,4.323-2.146-1.343L143.3,94.565h0L137.289,90.8l5.843-3.537,13.727,8.592a.318.318,0,0,0,.336,0l13.768-8.544,5.844,3.572Z" transform="translate(10116.37 19217.82)" fill="#215a18" stroke="#215a18" stroke-width="1"/>
    <path id="Path_29644" data-name="Path 29644" d="M238.059,140.306l11.71-7.266a.318.318,0,0,0,0-.541l-11.686-7.138a.318.318,0,0,0-.33,0l-11.71,7.089a.318.318,0,0,0,0,.541l11.686,7.315a.318.318,0,0,0,.336,0Zm-11.247-7.58,11.1-6.722L249,132.773l-11.1,6.889Z" transform="translate(10035.513 19168.031)" fill="#215a18" stroke="#215a18" stroke-width="1"/>
    <path id="Path_29648" data-name="Path 29648" d="M261.094,537.65H241.246a.318.318,0,1,0,0,.635h19.847a.318.318,0,1,0,0-.635Z" transform="translate(10021.931 18795.617)" fill="#215a18" stroke="#215a18" stroke-width="1"/>
  </g>
</svg>
