<svg xmlns="http://www.w3.org/2000/svg" width="32.983" height="32.983" viewBox="0 0 32.983 32.983">
  <path id="Path_29763" data-name="Path 29763" d="M86.546,0A16.492,16.492,0,1,1,70,16.546,16.454,16.454,0,0,1,86.546,0Zm0,5.083a5.733,5.733,0,1,1-5.84,5.732,5.77,5.77,0,0,1,5.84-5.732Zm5.732,9.841a6.564,6.564,0,0,1,2.812,5.3v3.893c0,3.352-6.164,3.893-8.543,3.893-2.487,0-8.543-.433-8.543-3.893V20.223a6.29,6.29,0,0,1,2.812-5.3l.216-.108.216.216a4.579,4.579,0,0,0,.541.757l.216.216-.324.216a4.874,4.874,0,0,0-2.163,4v3.893c0,3.028,13.95,2.92,13.95,0V20.223a4.618,4.618,0,0,0-2.163-4l-.324-.216.216-.216a3.286,3.286,0,0,0,.541-.757l.216-.324.324.216ZM86.546,6.6a4.219,4.219,0,1,0,4.109,4.217A4.223,4.223,0,0,0,86.546,6.6Zm0-4.65a14.545,14.545,0,1,1-14.6,14.6,14.515,14.515,0,0,1,14.6-14.6Z" transform="translate(-70)" fill="#215a18" fill-rule="evenodd"/>
</svg>
