<svg xmlns="http://www.w3.org/2000/svg" width="26.321" height="19.553" viewBox="0 0 26.321 19.553">
  <g id="login-user" transform="translate(-5 -14)">
    <path id="Path_31131" data-name="Path 31131" d="M30.569,29.041h-.376V14.752A.752.752,0,0,0,29.441,14H6.88a.752.752,0,0,0-.752.752V29.041H5.752A.752.752,0,0,0,5,29.793v.752a3.012,3.012,0,0,0,3.008,3.008h20.3a3.012,3.012,0,0,0,3.008-3.008v-.752A.752.752,0,0,0,30.569,29.041ZM7.632,15.5H28.689V29.041H7.632ZM28.313,32.049H8.008a1.506,1.506,0,0,1-1.5-1.5H29.817A1.506,1.506,0,0,1,28.313,32.049Z" fill="#215a18"/>
    <path id="Path_31132" data-name="Path 31132" d="M32.416,25.767a3.384,3.384,0,1,0-4.8,0A6.023,6.023,0,0,0,24,31.28a.752.752,0,0,0,.752.752H35.28a.752.752,0,0,0,.752-.752,6.023,6.023,0,0,0-3.616-5.513Zm-2.4-4.263a1.88,1.88,0,1,1-1.88,1.88A1.882,1.882,0,0,1,30.016,21.5Zm-4.449,9.024a4.513,4.513,0,0,1,8.9,0Z" transform="translate(-11.856 -3.744)" fill="#215a18"/>
  </g>
</svg>
