<svg xmlns="http://www.w3.org/2000/svg" width="59.258" height="37.825" viewBox="0 0 59.258 37.825">
  <g id="Group_29342" data-name="Group 29342" transform="translate(-9611.282 -19186)">
    <path id="Path_29713" data-name="Path 29713" d="M116.69,112V142.89h2.264v1.891H116.69a1.891,1.891,0,0,1-1.891-1.891v-29A1.891,1.891,0,0,1,116.69,112Zm49.173,1.891H116.69V112h49.173a1.891,1.891,0,0,1,1.891,1.891v30.891h-4.67V142.89h2.779Z" transform="translate(9499.634 19074.002)" fill="#215a18"/>
    <path id="Path_29714" data-name="Path 29714" d="M88.706,388.29l.3,1.069a2.846,2.846,0,0,0,2.742,2.083h49.4a2.846,2.846,0,0,0,2.742-2.083l.3-1.069H123.215a3.464,3.464,0,0,1-2.675,1.261h-7.565a3.465,3.465,0,0,1-2.675-1.261Zm22.725-1.891a1.577,1.577,0,0,0,1.544,1.261h7.565a1.577,1.577,0,0,0,1.545-1.261h22.1A1.892,1.892,0,0,1,146,388.8l-.3,1.069a4.737,4.737,0,0,1-4.564,3.467h-49.4a4.737,4.737,0,0,1-4.564-3.467l-.3-1.069a1.892,1.892,0,0,1,1.822-2.4Z" transform="translate(9524.469 18830.492)" fill="#215a18"/>
    <path id="Path_29715" data-name="Path 29715" d="M302.821,221.478a.946.946,0,1,1,1.347,1.328l-7.434,8.826a.946.946,0,0,1-1.347,0l-3.913-3.971a.946.946,0,1,1,1.347-1.328l3.24,3.288Z" transform="translate(9343.091 18977.098)" fill="#215a18"/>
    <path id="Path_29716" data-name="Path 29716" d="M263.033,187.265a11.033,11.033,0,1,1,11.033-11.033A11.032,11.032,0,0,1,263.033,187.265Zm0-1.891a9.141,9.141,0,1,0-9.141-9.141A9.141,9.141,0,0,0,263.033,185.374Z" transform="translate(9377.878 19026.791)" fill="#215a18"/>
  </g>
</svg>
