<svg xmlns="http://www.w3.org/2000/svg" width="41" height="39.921" viewBox="0 0 41 39.921">
  <path id="inventory_2_FILL0_wght300_GRAD0_opsz48" d="M7.158,42.738V17.6a2.1,2.1,0,0,1-1.457-1A3.405,3.405,0,0,1,5,14.524V9.129a3.042,3.042,0,0,1,.917-2.185A2.972,2.972,0,0,1,8.129,6H42.871a3,3,0,0,1,2.185.944A3,3,0,0,1,46,9.129v5.395a3.405,3.405,0,0,1-.7,2.077,2.1,2.1,0,0,1-1.457,1V42.738A3.088,3.088,0,0,1,42.9,44.95a2.96,2.96,0,0,1-2.185.971H10.287a2.933,2.933,0,0,1-2.212-.971A3.134,3.134,0,0,1,7.158,42.738ZM9.586,17.653V42.792a.652.652,0,0,0,.7.7H40.713a.652.652,0,0,0,.7-.7V17.653Zm33.286-2.482a.761.761,0,0,0,.513-.162.6.6,0,0,0,.189-.486V9.129a.652.652,0,0,0-.7-.7H8.129a.652.652,0,0,0-.7.7v5.395a.6.6,0,0,0,.189.486.761.761,0,0,0,.512.162Zm-23.413,13H31.542V25.691H19.458ZM9.586,43.493v0Z" transform="translate(-5 -6)" fill="#215a18"/>
</svg>
