<svg xmlns="http://www.w3.org/2000/svg" width="41" height="30.116" viewBox="0 0 41 30.116">
  <path id="supervisor_account_FILL0_wght300_GRAD0_opsz48" d="M35.72,28.856a4.51,4.51,0,0,1-4.544-4.544,4.323,4.323,0,0,1,1.321-3.17,4.385,4.385,0,0,1,3.223-1.321,4.3,4.3,0,0,1,3.2,1.321,4.368,4.368,0,0,1,1.294,3.17,4.431,4.431,0,0,1-1.294,3.223A4.3,4.3,0,0,1,35.72,28.856Zm-9.933,11.36V38a3.951,3.951,0,0,1,.528-2.087,3.212,3.212,0,0,1,1.479-1.294,18.96,18.96,0,0,1,3.857-1.347,18.116,18.116,0,0,1,4.068-.449,18.947,18.947,0,0,1,4.015.423,16.321,16.321,0,0,1,3.857,1.374,3.212,3.212,0,0,1,1.479,1.294A3.951,3.951,0,0,1,45.6,38v2.219ZM20.451,24.1a6.778,6.778,0,0,1-6.974-7.027,6.747,6.747,0,0,1,1.981-5.019A6.818,6.818,0,0,1,20.451,10.1,6.884,6.884,0,0,1,25.5,12.055a6.747,6.747,0,0,1,1.981,5.019A6.781,6.781,0,0,1,20.451,24.1ZM4.6,40.216V36.2a5.309,5.309,0,0,1,3.223-4.914,37.154,37.154,0,0,1,6.419-2.219,26.587,26.587,0,0,1,6.208-.74q1.479,0,2.642.106a23.608,23.608,0,0,1,2.483.37l-2.008,2.061a12.363,12.363,0,0,0-1.453-.132q-.766-.026-1.664-.026a26.832,26.832,0,0,0-5.706.608,25.092,25.092,0,0,0-5.865,2.14,3.269,3.269,0,0,0-1.321,1.136A2.794,2.794,0,0,0,7.03,36.2v1.638H21.56v2.378ZM21.56,37.838Zm-1.11-16.115A4.517,4.517,0,0,0,25.1,17.074,4.448,4.448,0,0,0,23.779,13.8a4.513,4.513,0,0,0-3.329-1.321,4.512,4.512,0,0,0-4.6,4.6A4.513,4.513,0,0,0,17.175,20.4,4.448,4.448,0,0,0,20.451,21.724ZM20.451,17.074Z" transform="translate(-4.6 -10.1)" fill="#215a18"/>
</svg>
