<svg xmlns="http://www.w3.org/2000/svg" width="41" height="28.5" viewBox="0 0 41 28.5">
  <path id="group_FILL0_wght300_GRAD0_opsz48" d="M3.5,38.6V34.8a4.853,4.853,0,0,1,.825-2.775A5.269,5.269,0,0,1,6.6,30.15a42.143,42.143,0,0,1,5.925-2.1,23.831,23.831,0,0,1,6.025-.7,23.317,23.317,0,0,1,5.95.7,42.674,42.674,0,0,1,5.9,2.1,5.269,5.269,0,0,1,2.275,1.875A4.853,4.853,0,0,1,33.5,34.8v3.8Zm33.3,0V34.9a7.586,7.586,0,0,0-1.25-4.475A10.011,10.011,0,0,0,32.3,27.5a45.014,45.014,0,0,1,5.05,1.05,19.427,19.427,0,0,1,4,1.5,6.544,6.544,0,0,1,2.3,2.05,4.867,4.867,0,0,1,.85,2.8v3.7ZM18.55,23.35A6.417,6.417,0,0,1,11.9,16.7a6.385,6.385,0,0,1,1.875-4.75A6.515,6.515,0,0,1,18.55,10.1a6.452,6.452,0,0,1,4.725,1.85A6.385,6.385,0,0,1,25.15,16.7a6.414,6.414,0,0,1-6.6,6.65ZM34.3,16.7a6.515,6.515,0,0,1-1.85,4.775A6.385,6.385,0,0,1,27.7,23.35a5.487,5.487,0,0,1-.725-.05,5.079,5.079,0,0,1-.725-.15,8.255,8.255,0,0,0,1.6-2.825A11.26,11.26,0,0,0,28.4,16.7a10.011,10.011,0,0,0-.575-3.5,11.671,11.671,0,0,0-1.575-2.9,3.664,3.664,0,0,1,.7-.15,6.065,6.065,0,0,1,.75-.05,6.336,6.336,0,0,1,6.6,6.6ZM5.8,36.35H31.25V34.8a2.724,2.724,0,0,0-.45-1.5,3.033,3.033,0,0,0-1.3-1.1,30.74,30.74,0,0,0-5.55-2.025,23.234,23.234,0,0,0-5.4-.575,23.476,23.476,0,0,0-5.45.575A30.74,30.74,0,0,0,7.55,32.2a3.033,3.033,0,0,0-1.3,1.1,2.724,2.724,0,0,0-.45,1.5ZM18.5,21.1a4.274,4.274,0,0,0,4.4-4.4,4.21,4.21,0,0,0-1.25-3.1,4.271,4.271,0,0,0-3.15-1.25,4.27,4.27,0,0,0-4.35,4.35,4.271,4.271,0,0,0,1.25,3.15A4.21,4.21,0,0,0,18.5,21.1ZM18.5,36.35ZM18.5,16.7Z" transform="translate(-3.5 -10.1)" fill="#215a18"/>
</svg>
