<svg xmlns="http://www.w3.org/2000/svg" width="38.283" height="46.886" viewBox="0 0 38.283 46.886">
  <path id="Path_29717" data-name="Path 29717" d="M208.368,96.2a1.434,1.434,0,0,0-1.434,1.434v31.547a1.434,1.434,0,0,0,1.434,1.434h22.944a1.434,1.434,0,0,0,1.434-1.434V106.239h-7.17a1.434,1.434,0,0,1-1.434-1.434V96.2Zm18.642,2.442,4.052,4.727H227.01Zm-22.944.425V97.636a4.3,4.3,0,0,1,4.3-4.3h17.207a1.435,1.435,0,0,1,1.089.5l8.6,10.038a1.434,1.434,0,0,1,.345.933v24.377a4.3,4.3,0,0,1-4.3,4.3h-1.434v1.434a4.3,4.3,0,0,1-4.3,4.3H202.632a4.3,4.3,0,0,1-4.3-4.3V103.371a4.3,4.3,0,0,1,4.3-4.3Zm22.944,34.415v1.434a1.434,1.434,0,0,1-1.434,1.434H202.632a1.434,1.434,0,0,1-1.434-1.434V103.371a1.434,1.434,0,0,1,1.434-1.434h1.434v27.245a4.3,4.3,0,0,0,4.3,4.3ZM209.8,100.5a1.434,1.434,0,0,1,1.434-1.434h7.17a1.434,1.434,0,0,1,1.434,1.434v7.17a1.434,1.434,0,0,1-1.434,1.434h-7.17a1.434,1.434,0,0,1-1.434-1.434Zm2.868,1.434v4.3h4.3v-4.3ZM209.8,113.41a1.434,1.434,0,0,1,1.434-1.434h5.736a1.434,1.434,0,1,1,0,2.868h-5.736A1.434,1.434,0,0,1,209.8,113.41Zm10.037,0a1.434,1.434,0,0,1,1.434-1.434h2.868a1.434,1.434,0,1,1,0,2.868h-2.868A1.434,1.434,0,0,1,219.84,113.41Zm-10.037,4.3a1.434,1.434,0,0,1,1.434-1.434h17.207a1.434,1.434,0,1,1,0,2.868H211.236A1.434,1.434,0,0,1,209.8,117.712Zm0,4.3a1.434,1.434,0,0,1,1.434-1.434h11.472a1.434,1.434,0,0,1,0,2.868H211.236A1.434,1.434,0,0,1,209.8,122.013Zm15.773,0a1.434,1.434,0,0,1,1.434-1.434h1.434a1.434,1.434,0,1,1,0,2.868H227.01A1.434,1.434,0,0,1,225.575,122.013Zm-15.773,4.3a1.434,1.434,0,0,1,1.434-1.434h17.207a1.434,1.434,0,1,1,0,2.868H211.236A1.434,1.434,0,0,1,209.8,126.315Z" transform="translate(-197.83 -92.834)" fill="#215a18" stroke="#fff" stroke-width="1" fill-rule="evenodd"/>
</svg>
