<svg xmlns="http://www.w3.org/2000/svg" width="41" height="38.999" viewBox="0 0 41 38.999">
  <g id="Group_29378" data-name="Group 29378" transform="translate(-1644 -476)">
    <path id="apk_install_FILL0_wght300_GRAD0_opsz48" d="M7.976,44A2.978,2.978,0,0,1,5,41.023V7.976A2.978,2.978,0,0,1,7.976,5H25.013L35.788,15.776V26.757H33.479V17.315H23.473V7.309H7.976a.7.7,0,0,0-.667.667V41.023a.7.7,0,0,0,.667.667H29.682V44ZM7.309,41.69v0ZM39.021,44,32.094,37.02l1.591-1.693,4.208,4.208v-9.8H40.2v9.8l4.156-4.156L46,37.02Z" transform="translate(1639 471)" fill="#215a18"/>
    <line id="Line_215" data-name="Line 215" x2="20" transform="translate(1649.5 495.5)" fill="none" stroke="#215a18" stroke-width="2"/>
    <line id="Line_216" data-name="Line 216" x2="20" transform="translate(1649.5 499.5)" fill="none" stroke="#215a18" stroke-width="2"/>
    <line id="Line_217" data-name="Line 217" x2="20" transform="translate(1649.5 503.5)" fill="none" stroke="#215a18" stroke-width="2"/>
  </g>
</svg>
