<svg xmlns="http://www.w3.org/2000/svg" width="37.365" height="34.281" viewBox="0 0 37.365 34.281">
  <path id="Path_29762" data-name="Path 29762" d="M56.908,26.1a1.009,1.009,0,0,0,2.016,0,6.109,6.109,0,1,1,12.218,0,1.009,1.009,0,0,0,2.016,0,8.364,8.364,0,0,0-4.507-7.354A6.311,6.311,0,0,0,64.974,7.243a6.328,6.328,0,0,0-6.287,6.287,6.111,6.111,0,0,0,2.728,5.219A8.145,8.145,0,0,0,56.908,26.1Zm-7.592-3.559,4.507-6.4h-3.44A14.666,14.666,0,1,1,64.974,31.8c-.593,0-1.3-.119-1.9-.119A9.882,9.882,0,0,1,61.3,31.2L60.585,33.7a12.8,12.8,0,0,0,2.254.356,13.071,13.071,0,0,0,2.135.237A17.14,17.14,0,1,0,47.893,16.14H44.809l4.507,6.4ZM64.974,9.26a4.28,4.28,0,0,1,4.389,4.27,4.33,4.33,0,1,1-8.659,0,4.253,4.253,0,0,1,4.27-4.27Z" transform="translate(-44.809 -0.008)" fill="#215a18"/>
</svg>
