<svg xmlns="http://www.w3.org/2000/svg" width="32.368" height="41" viewBox="0 0 32.368 41">
  <path id="upload_file_FILL0_wght300_GRAD0_opsz48" d="M24.051,39.2h2.428v-10.9L31.172,33,32.9,31.272,25.184,23.72,17.524,31.38l1.726,1.672,4.8-4.747ZM12.129,46A3.131,3.131,0,0,1,9,42.871V8.129A3.131,3.131,0,0,1,12.129,5h18.72l10.52,10.52V42.871A3.131,3.131,0,0,1,38.239,46ZM29.662,16.6V7.428H12.129a.74.74,0,0,0-.7.7V42.871a.74.74,0,0,0,.7.7H38.239a.74.74,0,0,0,.7-.7V16.6ZM11.428,7.428v0Z" transform="translate(-9 -5)" fill="#215a18"/>
</svg>
