<svg xmlns="http://www.w3.org/2000/svg" width="55.779" height="25.464" viewBox="0 0 55.779 25.464">
  <path id="groups_FILL0_wght300_GRAD0_opsz48" d="M1,40.064V37.518A4.2,4.2,0,0,1,3.425,33.85,12.207,12.207,0,0,1,9.67,32.425q.728,0,1.394.061t1.213.121a17.863,17.863,0,0,0-.606,1.94,8.474,8.474,0,0,0-.243,2.061v3.456Zm14.551,0V36.73q0-3.517,3.7-5.608a19.476,19.476,0,0,1,9.64-2.092,19.442,19.442,0,0,1,9.67,2.092q3.668,2.092,3.668,5.608v3.335Zm30.8,0V36.609a9.63,9.63,0,0,0-.212-2.061,10.362,10.362,0,0,0-.637-1.94q.606-.061,1.273-.121t1.334-.061a12.141,12.141,0,0,1,6.305,1.425,4.206,4.206,0,0,1,2.365,3.668v2.546ZM28.89,31.758a18.176,18.176,0,0,0-7.73,1.394q-2.941,1.394-2.88,3.638v.485H39.5V36.73q.061-2.183-2.85-3.577a18.137,18.137,0,0,0-7.761-1.394ZM9.67,30.546a3.558,3.558,0,0,1-2.607-1.091,3.629,3.629,0,0,1-1.091-2.668A3.46,3.46,0,0,1,7.063,24.21,3.609,3.609,0,0,1,9.67,23.149a3.609,3.609,0,0,1,2.607,1.061,3.7,3.7,0,0,1,0,5.244A3.558,3.558,0,0,1,9.67,30.546Zm38.439,0A3.558,3.558,0,0,1,45.5,29.454a3.629,3.629,0,0,1-1.091-2.668A3.46,3.46,0,0,1,45.5,24.21a3.709,3.709,0,0,1,5.244,5.244,3.529,3.529,0,0,1-2.637,1.091ZM28.89,27.211a6.314,6.314,0,0,1-6.305-6.305,6.045,6.045,0,0,1,1.849-4.487,6.406,6.406,0,0,1,8.943,0A6.1,6.1,0,0,1,35.2,20.905a6.125,6.125,0,0,1-1.819,4.456A6.045,6.045,0,0,1,28.89,27.211Zm0-9.822a3.44,3.44,0,0,0-2.486,1,3.36,3.36,0,0,0-1.031,2.516,3.544,3.544,0,0,0,1,2.516,3.383,3.383,0,0,0,2.577,1.061,3.289,3.289,0,0,0,2.456-1.031,3.514,3.514,0,0,0,1-2.546,3.42,3.42,0,0,0-3.517-3.517ZM28.89,37.275ZM28.89,20.905Z" transform="translate(-1 -14.6)" fill="#215a18"/>
</svg>
